<svg width="24" height="24" viewBox="0 0 24 24" fill="none" xmlns="http://www.w3.org/2000/svg">
<path d="M5.40039 6.89209C3.33789 7.85459 1.96289 9.91709 1.96289 12.3921C1.96289 14.1796 3.20039 16.7921 4.71289 18.1671L8.01291 12.3921L5.40039 6.89209Z" fill="#FFE500"/>
<path d="M4.7125 19.1296C4.4375 19.1296 4.1625 18.9921 4.025 18.8546C2.5125 17.4796 1 14.5921 1 12.2546C1 9.36712 2.65 6.8921 5.125 5.7921C5.675 5.5171 6.08752 6.20462 6.36252 6.75462L9.11252 11.8421C9.25002 12.1171 9.25002 12.5296 9.11252 12.9421L6.36252 16.5171L5.67502 18.0296C5.53752 18.3046 5.26252 19.2671 4.98752 19.2671C4.85002 19.1296 4.7125 19.1296 4.7125 19.1296ZM4.98752 8.40459C3.75002 9.22959 3.0625 10.7421 3.0625 12.2546C3.0625 13.3546 3.75001 14.8671 4.57501 16.1046L6.91251 12.2546L4.98752 8.40459Z" fill="#23252C"/>
<path d="M16.1248 9.77932L15.8498 9.09182L14.1998 5.65432C12.5498 2.21681 8.42481 0.841838 5.12481 2.62934L4.29982 3.04182C3.47482 3.45432 3.06231 4.69181 3.47481 5.51681V5.65432L3.88732 6.47933L4.43731 7.44184L5.67482 9.64181C6.22482 10.4668 6.91232 11.2918 7.73733 11.8418L7.87481 11.9793C8.14981 12.2543 8.56232 12.3918 8.97482 12.5293C9.66232 12.8043 10.4873 13.0793 11.3123 13.0793C11.4498 13.0793 11.5873 13.0793 11.5873 13.0793H11.7248H12.1373H14.3373H14.8873C15.1623 13.0793 15.4373 12.9418 15.5748 12.6668C15.7123 12.5293 15.8498 12.2543 15.8498 11.9793L15.9873 10.3293C16.2623 10.1918 16.2623 9.91682 16.1248 9.77932ZM6.08731 4.55433C8.42481 3.31683 11.1748 4.27933 12.2748 6.61684L14.0623 10.3293V10.6043H12.1373H11.8623C11.7248 10.6043 11.7248 10.6043 11.5873 10.6043C9.93731 10.6043 8.42482 9.64185 7.59982 8.12934L5.53731 4.55433H6.08731Z" fill="#23252C"/>
<path d="M15.8501 12.6679L15.7126 11.9804C15.7126 11.4304 15.1626 11.0178 14.7501 11.0178L12.2751 10.8804H11.7251C10.7626 10.8804 9.80009 11.1554 8.97509 11.5679C8.70009 11.7054 8.42508 11.8429 8.15008 11.9804C8.15008 11.9804 8.15009 11.9804 8.01259 12.1179C7.18759 12.6679 6.50009 13.4929 5.95009 14.3179L4.16258 17.3429L3.61259 18.3054C3.33759 18.7179 3.33758 19.2679 3.47508 19.6804C3.61258 20.0929 3.88759 20.5054 4.30009 20.7804L5.12508 21.3303C6.08758 21.8803 7.18758 22.1554 8.28758 22.1554C10.7626 22.1554 13.1001 20.7804 14.3376 18.4429L15.8501 15.5554L16.1251 15.0054C16.2626 14.7304 16.2626 14.5929 16.2626 14.3179L15.8501 12.6679ZM12.2751 17.2053C11.0376 19.5428 8.28758 20.5053 6.08757 19.2678L5.53758 18.9929L7.60008 15.5554C8.42508 14.1804 9.93759 13.2178 11.4501 13.2178C11.5876 13.2178 11.7251 13.2178 11.8626 13.2178H12.2751H13.6501L13.7876 14.0429L12.2751 17.2053Z" fill="#23252C"/>
<path d="M18.7371 16.655C16.3996 16.655 14.4746 14.73 14.4746 12.255C14.4746 9.78 16.3996 7.85498 18.7371 7.85498C21.0746 7.85498 22.9996 9.78 22.9996 12.255C22.9996 14.73 21.0746 16.655 18.7371 16.655Z" fill="#23252C"/>
<path d="M20.7998 12.2547C20.7998 13.4922 19.8373 14.4547 18.7373 14.4547C17.6373 14.4547 16.6748 13.4922 16.6748 12.2547C16.6748 11.0172 17.6373 10.0547 18.7373 10.0547C19.8373 10.1922 20.7998 11.1547 20.7998 12.2547Z" fill="white"/>
<path d="M16.1248 9.77932L15.8498 9.09182L14.1998 5.65432C12.5498 2.21681 8.42481 0.841838 5.12481 2.62934L4.29982 3.04182C3.47482 3.45432 3.06231 4.69181 3.47481 5.51681V5.65432L3.88732 6.47933L4.43731 7.44184L5.67482 9.64181C6.22482 10.4668 6.91232 11.2918 7.73733 11.8418L7.87481 11.9793C8.14981 12.2543 8.56232 12.3918 8.97482 12.5293C9.66232 12.8043 10.4873 13.0793 11.3123 13.0793C11.4498 13.0793 11.5873 13.0793 11.5873 13.0793H11.7248H12.1373H14.3373H14.8873C15.1623 13.0793 15.4373 12.9418 15.5748 12.6668C15.7123 12.5293 15.8498 12.2543 15.8498 11.9793L15.9873 10.3293C16.2623 10.1918 16.2623 9.91682 16.1248 9.77932ZM6.08731 4.55433C8.42481 3.31683 11.1748 4.27933 12.2748 6.61684L14.0623 10.3293V10.6043H12.1373H11.8623C11.7248 10.6043 11.7248 10.6043 11.5873 10.6043C9.93731 10.6043 8.42482 9.64185 7.59982 8.12934L5.53731 4.55433H6.08731Z" fill="#23252C"/>
<path d="M14.0621 10.467V10.7421H12.1371H11.5871C9.93711 10.7421 8.42461 9.77954 7.59961 8.26704L5.53711 4.69207L6.0871 4.41705C8.4246 3.17955 11.1746 4.14205 12.2746 6.47955L14.0621 10.467Z" fill="white"/>
<path d="M15.8501 12.6679L15.7126 11.9804C15.7126 11.4304 15.1626 11.0178 14.7501 11.0178L12.2751 10.8804H11.7251C10.7626 10.8804 9.80009 11.1554 8.97509 11.5679C8.70009 11.7054 8.42508 11.8429 8.15008 11.9804C8.15008 11.9804 8.15009 11.9804 8.01259 12.1179C7.18759 12.6679 6.50009 13.4929 5.95009 14.3179L4.16258 17.3429L3.61259 18.3054C3.33759 18.7179 3.33758 19.2679 3.47508 19.6804C3.61258 20.0929 3.88759 20.5054 4.30009 20.7804L5.12508 21.3303C6.08758 21.8803 7.18758 22.1554 8.28758 22.1554C10.7626 22.1554 13.1001 20.7804 14.3376 18.4429L15.8501 15.5554L16.1251 15.0054C16.2626 14.7304 16.2626 14.5929 16.2626 14.3179L15.8501 12.6679ZM12.2751 17.2053C11.0376 19.5428 8.28758 20.5053 6.08757 19.2678L5.53758 18.9929L7.60008 15.5554C8.42508 14.1804 9.93759 13.2178 11.4501 13.2178C11.5876 13.2178 11.7251 13.2178 11.8626 13.2178H12.2751H13.6501L13.7876 14.0429L12.2751 17.2053Z" fill="#23252C"/>
<path d="M13.7879 14.0433L12.1379 17.2058C10.9004 19.5433 8.15041 20.5058 5.9504 19.2683L5.40039 18.9933L7.46289 15.5558C8.28789 14.1808 9.8004 13.2183 11.3129 13.2183C11.4504 13.2183 11.5879 13.2183 11.5879 13.2183H11.7254H12.1379H13.5129L13.7879 14.0433Z" fill="white"/>
</svg>
