<svg width="18" height="18" viewBox="0 0 18 18" fill="none" xmlns="http://www.w3.org/2000/svg">
<g clip-path="url(#clip0_794_2670)">
<path d="M4.27979 5.31811C2.80979 5.97841 1.77979 7.50911 1.77979 9.27991C1.77979 10.6205 2.71979 12.4714 3.74979 13.4618L6.18979 9.28992L4.27979 5.30811V5.31811Z" fill="#FFE500"/>
<path d="M3.75 14.2821C3.56 14.2821 3.37 14.2021 3.22 14.062C2.14 13.0316 1 11.0006 1 9.27987C1 7.22893 2.17 5.37809 3.97 4.56772C4.35 4.39765 4.71 4.84785 4.89 5.23803L6.88 8.93971C7 9.18983 6.99 9.48996 6.85 9.73007L4.89 12.2912L4.37 13.3717C4.25 13.5818 4.08 14.2521 3.86 14.2821C3.82 14.2821 3.79 14.2821 3.75 14.2821ZM3.95 6.44858C3.09 7.09887 2.56 8.14935 2.56 9.28987C2.56 10.0902 3.01 11.2207 3.64 12.1112L5.3 9.25986L3.95 6.43857V6.44858Z" fill="#23252C"/>
<path d="M12.0698 7.39926L11.8398 6.92905L10.6398 4.45793C9.39983 1.93678 6.42983 0.936324 4.00983 2.22691L3.37983 2.56707C2.73983 2.90722 2.49983 3.71759 2.81983 4.37789C2.82983 4.3979 2.84983 4.43792 2.84983 4.43792L3.18983 5.01818L3.59983 5.70849L4.52983 7.29922C4.90983 7.94951 5.40983 8.48976 5.99983 8.88994C6.04983 8.93996 6.09983 8.97998 6.14983 8.99999C6.39983 9.18007 6.65983 9.32014 6.93983 9.43019C7.47983 9.67029 8.05983 9.81036 8.64983 9.83037C8.72983 9.84037 8.79983 9.84037 8.87983 9.84037H9.26983L10.8998 9.79035H11.2798C11.4998 9.77034 11.6998 9.67029 11.8298 9.51022C11.9398 9.39017 12.0098 9.23009 12.0298 9.05001L12.1598 7.85947C12.1698 7.6994 12.1398 7.53933 12.0698 7.39926ZM4.72983 3.66757C6.37983 2.78717 8.40983 3.46747 9.25983 5.19826L10.5898 7.9195L10.5598 8.16961L9.16983 8.19963H8.96983C8.89983 8.20963 8.82983 8.20963 8.75983 8.19963C7.57983 8.16961 6.47983 7.50931 5.85983 6.44883L4.34983 3.87766L4.72983 3.66757Z" fill="#23252C"/>
<path d="M11.8302 9.5103L11.7702 8.98006C11.7302 8.58988 11.4102 8.28975 11.0302 8.26974H11.0202L9.17023 8.19971H8.76023C8.05023 8.20971 7.37023 8.37979 6.74023 8.66992C6.54023 8.76997 6.34023 8.88002 6.15023 9.00007C6.12023 9.02008 6.10023 9.03008 6.07023 9.05009C5.46023 9.47028 4.92023 10.0205 4.52023 10.6808L3.21023 12.8418L2.80023 13.5221C2.80023 13.5221 2.78023 13.5621 2.77023 13.5721C2.61023 13.8923 2.57023 14.2625 2.68023 14.6026C2.78023 14.9428 3.00023 15.2229 3.31023 15.393L3.94023 15.7431C4.67023 16.1433 5.46023 16.3334 6.23023 16.3334C8.00023 16.3334 9.71023 15.3329 10.5902 13.5922L11.6702 11.4512L11.8802 11.041C11.9502 10.8909 11.9802 10.7309 11.9602 10.5608L11.8302 9.5103ZM9.22023 12.8418C8.35023 14.5526 6.31023 15.2129 4.67023 14.3125L4.29023 14.0924L5.83023 11.5412C6.46023 10.5308 7.52023 9.89048 8.65023 9.83045C8.76023 9.82044 8.86023 9.82044 8.97023 9.82044H9.27023L10.3102 9.88047L10.3902 10.5208L9.22023 12.8418Z" fill="#23252C"/>
<path d="M13.9201 12.4913C12.2201 12.4913 10.8501 11.0506 10.8501 9.27982C10.8501 7.50901 12.2301 6.06836 13.9201 6.06836C15.6101 6.06836 17.0001 7.50901 17.0001 9.27982C17.0001 11.0506 15.6201 12.4913 13.9201 12.4913ZM13.9201 7.6991C13.0801 7.6991 12.4101 8.40942 12.4101 9.28982C12.4101 10.1702 13.0901 10.8805 13.9201 10.8805C14.7501 10.8805 15.4401 10.1702 15.4401 9.28982C15.4401 8.40942 14.7601 7.6991 13.9201 7.6991Z" fill="#23252C"/>
<path d="M12.0698 7.39926L11.8398 6.92905L10.6398 4.45793C9.39983 1.93678 6.42983 0.936324 4.00983 2.22691L3.37983 2.56707C2.73983 2.90722 2.49983 3.71759 2.81983 4.37789C2.82983 4.3979 2.84983 4.43792 2.84983 4.43792L3.18983 5.01818L3.59983 5.70849L4.52983 7.29922C4.90983 7.94951 5.40983 8.48976 5.99983 8.88994C6.04983 8.93996 6.09983 8.97998 6.14983 8.99999C6.39983 9.18007 6.65983 9.32014 6.93983 9.43019C7.47983 9.67029 8.05983 9.81036 8.64983 9.83037C8.72983 9.84037 8.79983 9.84037 8.87983 9.84037H9.26983L10.8998 9.79035H11.2798C11.4998 9.77034 11.6998 9.67029 11.8298 9.51022C11.9398 9.39017 12.0098 9.23009 12.0298 9.05001L12.1598 7.85947C12.1698 7.6994 12.1398 7.53933 12.0698 7.39926ZM4.72983 3.66757C6.37983 2.78717 8.40983 3.46747 9.25983 5.19826L10.5898 7.9195L10.5598 8.16961L9.16983 8.19963H8.96983C8.89983 8.20963 8.82983 8.20963 8.75983 8.19963C7.57983 8.16961 6.47983 7.50931 5.85983 6.44883L4.34983 3.87766L4.72983 3.66757Z" fill="#23252C"/>
<path d="M10.5901 7.91945L10.5601 8.16956L9.1701 8.19957H8.7601C7.5801 8.16956 6.4801 7.50926 5.8601 6.44878L4.3501 3.87761L4.7301 3.66751C6.3801 2.78711 8.4101 3.46742 9.2601 5.19821L10.5901 7.91945Z" fill="white"/>
<path d="M11.8302 9.5103L11.7702 8.98006C11.7302 8.58988 11.4102 8.28975 11.0302 8.26974H11.0202L9.17023 8.19971H8.76023C8.05023 8.20971 7.37023 8.37979 6.74023 8.66992C6.54023 8.76997 6.34023 8.88002 6.15023 9.00007C6.12023 9.02008 6.10023 9.03008 6.07023 9.05009C5.46023 9.47028 4.92023 10.0205 4.52023 10.6808L3.21023 12.8418L2.80023 13.5221C2.80023 13.5221 2.78023 13.5621 2.77023 13.5721C2.61023 13.8923 2.57023 14.2625 2.68023 14.6026C2.78023 14.9428 3.00023 15.2229 3.31023 15.393L3.94023 15.7431C4.67023 16.1433 5.46023 16.3334 6.23023 16.3334C8.00023 16.3334 9.71023 15.3329 10.5902 13.5922L11.6702 11.4512L11.8802 11.041C11.9502 10.8909 11.9802 10.7309 11.9602 10.5608L11.8302 9.5103ZM9.22023 12.8418C8.35023 14.5526 6.31023 15.2129 4.67023 14.3125L4.29023 14.0924L5.83023 11.5412C6.46023 10.5308 7.52023 9.89048 8.65023 9.83045C8.76023 9.82044 8.86023 9.82044 8.97023 9.82044H9.27023L10.3102 9.88047L10.3902 10.5208L9.22023 12.8418Z" fill="#23252C"/>
<path d="M10.39 10.5204L9.22004 12.8414C8.35004 14.5522 6.31004 15.2125 4.67004 14.3121L4.29004 14.092L5.83004 11.5409C6.46004 10.5304 7.52004 9.89011 8.65004 9.83008C8.73004 9.84008 8.80004 9.84008 8.88004 9.84008H9.27004L10.31 9.8801L10.39 10.5204Z" fill="white"/>
</g>
<defs>
<clipPath id="clip0_794_2670">
<rect width="16" height="14.6667" fill="white" transform="translate(1 1.6665)"/>
</clipPath>
</defs>
</svg>
