<svg width="34" height="34" viewBox="0 0 34 34" fill="none" xmlns="http://www.w3.org/2000/svg">
<rect width="34" height="34" rx="17" fill="#FDFF9C"/>
<g clip-path="url(#clip0_1033_6799)">
<path d="M12.28 13.3183C10.81 13.9786 9.78 15.5093 9.78 17.2801C9.78 18.6207 10.72 20.4715 11.75 21.462L14.19 17.2901L12.28 13.3083V13.3183Z" fill="#FFE500"/>
<path d="M11.75 22.2824C11.56 22.2824 11.37 22.2023 11.22 22.0623C10.14 21.0318 9 19.0009 9 17.2801C9 15.2292 10.17 13.3783 11.97 12.568C12.35 12.3979 12.71 12.8481 12.89 13.2383L14.88 16.94C15 17.1901 14.99 17.4902 14.85 17.7303L12.89 20.2915L12.37 21.372C12.25 21.5821 12.08 22.2524 11.86 22.2824C11.82 22.2824 11.79 22.2824 11.75 22.2824ZM11.95 14.4488C11.09 15.0991 10.56 16.1496 10.56 17.2901C10.56 18.0905 11.01 19.221 11.64 20.1114L13.3 17.2601L11.95 14.4388V14.4488Z" fill="#23252C"/>
<path d="M20.07 15.3993L19.84 14.929L18.64 12.4579C17.4 9.93678 14.43 8.93632 12.01 10.2269L11.38 10.5671C10.74 10.9072 10.5 11.7176 10.82 12.3779C10.83 12.3979 10.85 12.4379 10.85 12.4379L11.19 13.0182L11.6 13.7085L12.53 15.2992C12.91 15.9495 13.41 16.4898 14 16.8899C14.05 16.94 14.1 16.98 14.15 17C14.4 17.1801 14.66 17.3201 14.94 17.4302C15.48 17.6703 16.06 17.8104 16.65 17.8304C16.73 17.8404 16.8 17.8404 16.88 17.8404H17.27L18.9 17.7903H19.28C19.5 17.7703 19.7 17.6703 19.83 17.5102C19.94 17.3902 20.01 17.2301 20.03 17.05L20.16 15.8595C20.17 15.6994 20.14 15.5393 20.07 15.3993ZM12.73 11.6676C14.38 10.7872 16.41 11.4675 17.26 13.1983L18.59 15.9195L18.56 16.1696L17.17 16.1996H16.97C16.9 16.2096 16.83 16.2096 16.76 16.1996C15.58 16.1696 14.48 15.5093 13.86 14.4488L12.35 11.8777L12.73 11.6676Z" fill="#23252C"/>
<path d="M19.83 17.5102L19.77 16.98C19.73 16.5898 19.41 16.2897 19.03 16.2697H19.02L17.17 16.1996H16.76C16.05 16.2097 15.37 16.3797 14.74 16.6699C14.54 16.7699 14.34 16.88 14.15 17C14.12 17.02 14.1 17.03 14.07 17.05C13.46 17.4702 12.92 18.0205 12.52 18.6808L11.21 20.8418L10.8 21.5221C10.8 21.5221 10.78 21.5621 10.77 21.5721C10.61 21.8922 10.57 22.2624 10.68 22.6026C10.78 22.9427 11 23.2228 11.31 23.3929L11.94 23.7431C12.67 24.1433 13.46 24.3333 14.23 24.3333C16 24.3333 17.71 23.3329 18.59 21.5921L19.67 19.4511L19.88 19.0409C19.95 18.8909 19.98 18.7308 19.96 18.5607L19.83 17.5102ZM17.22 20.8418C16.35 22.5525 14.31 23.2128 12.67 22.3124L12.29 22.0923L13.83 19.5412C14.46 18.5307 15.52 17.8904 16.65 17.8304C16.76 17.8204 16.86 17.8204 16.97 17.8204H17.27L18.31 17.8804L18.39 18.5207L17.22 20.8418Z" fill="#23252C"/>
<path d="M21.92 20.4916C20.22 20.4916 18.85 19.0509 18.85 17.2801C18.85 15.5093 20.23 14.0687 21.92 14.0687C23.61 14.0687 25 15.5093 25 17.2801C25 19.0509 23.62 20.4916 21.92 20.4916ZM21.92 15.6994C21.08 15.6994 20.41 16.4097 20.41 17.2901C20.41 18.1705 21.09 18.8809 21.92 18.8809C22.75 18.8809 23.44 18.1705 23.44 17.2901C23.44 16.4097 22.76 15.6994 21.92 15.6994Z" fill="#23252C"/>
<path d="M20.07 15.3993L19.84 14.929L18.64 12.4579C17.4 9.93678 14.43 8.93632 12.01 10.2269L11.38 10.5671C10.74 10.9072 10.5 11.7176 10.82 12.3779C10.83 12.3979 10.85 12.4379 10.85 12.4379L11.19 13.0182L11.6 13.7085L12.53 15.2992C12.91 15.9495 13.41 16.4898 14 16.8899C14.05 16.94 14.1 16.98 14.15 17C14.4 17.1801 14.66 17.3201 14.94 17.4302C15.48 17.6703 16.06 17.8104 16.65 17.8304C16.73 17.8404 16.8 17.8404 16.88 17.8404H17.27L18.9 17.7903H19.28C19.5 17.7703 19.7 17.6703 19.83 17.5102C19.94 17.3902 20.01 17.2301 20.03 17.05L20.16 15.8595C20.17 15.6994 20.14 15.5393 20.07 15.3993ZM12.73 11.6676C14.38 10.7872 16.41 11.4675 17.26 13.1983L18.59 15.9195L18.56 16.1696L17.17 16.1996H16.97C16.9 16.2096 16.83 16.2096 16.76 16.1996C15.58 16.1696 14.48 15.5093 13.86 14.4488L12.35 11.8777L12.73 11.6676Z" fill="#23252C"/>
<path d="M18.59 15.9195L18.56 16.1696L17.17 16.1996H16.76C15.58 16.1696 14.48 15.5093 13.86 14.4488L12.35 11.8777L12.73 11.6676C14.38 10.7872 16.41 11.4675 17.26 13.1983L18.59 15.9195Z" fill="white"/>
<path d="M19.83 17.5102L19.77 16.98C19.73 16.5898 19.41 16.2897 19.03 16.2697H19.02L17.17 16.1996H16.76C16.05 16.2097 15.37 16.3797 14.74 16.6699C14.54 16.7699 14.34 16.88 14.15 17C14.12 17.02 14.1 17.03 14.07 17.05C13.46 17.4702 12.92 18.0205 12.52 18.6808L11.21 20.8418L10.8 21.5221C10.8 21.5221 10.78 21.5621 10.77 21.5721C10.61 21.8922 10.57 22.2624 10.68 22.6026C10.78 22.9427 11 23.2228 11.31 23.3929L11.94 23.7431C12.67 24.1433 13.46 24.3333 14.23 24.3333C16 24.3333 17.71 23.3329 18.59 21.5921L19.67 19.4511L19.88 19.0409C19.95 18.8909 19.98 18.7308 19.96 18.5607L19.83 17.5102ZM17.22 20.8418C16.35 22.5525 14.31 23.2128 12.67 22.3124L12.29 22.0923L13.83 19.5412C14.46 18.5307 15.52 17.8904 16.65 17.8304C16.76 17.8204 16.86 17.8204 16.97 17.8204H17.27L18.31 17.8804L18.39 18.5207L17.22 20.8418Z" fill="#23252C"/>
<path d="M18.39 18.5207L17.22 20.8418C16.35 22.5525 14.31 23.2128 12.67 22.3124L12.29 22.0923L13.83 19.5412C14.46 18.5307 15.52 17.8904 16.65 17.8304C16.73 17.8404 16.8 17.8404 16.88 17.8404H17.27L18.31 17.8804L18.39 18.5207Z" fill="white"/>
</g>
<defs>
<clipPath id="clip0_1033_6799">
<rect width="16" height="14.6667" fill="white" transform="translate(9 9.66666)"/>
</clipPath>
</defs>
</svg>
