<svg width="34" height="34" viewBox="0 0 34 34" fill="none" xmlns="http://www.w3.org/2000/svg">
<circle cx="17" cy="17" r="17" fill="#FFD5BF"/>
<path d="M16.5031 23.7831L16.5031 23.7831L16.5528 23.8287C16.8015 24.0564 17.2007 24.0572 17.4504 23.8305C19.0374 22.3748 20.3342 21.1424 21.3436 20.1314C22.3477 19.1248 23.1173 18.2589 23.6651 17.5303L23.6655 17.5298C24.2147 16.8005 24.5532 16.1871 24.7257 15.6848L24.7261 15.6838C24.9083 15.1549 25 14.6055 25 14.0309C25 12.8669 24.6183 11.9301 23.857 11.1556C23.0965 10.3819 22.1836 10 21.0545 10C20.4396 10 19.841 10.1331 19.2498 10.408L19.249 10.4084C18.6642 10.6797 18.1746 11.057 17.7703 11.5455L17 12.4759L16.2297 11.5455C15.8254 11.057 15.3358 10.6797 14.751 10.4084L14.7502 10.408C14.159 10.1331 13.5604 10 12.9455 10C11.8164 10 10.9035 10.3819 10.143 11.1556C9.38167 11.9301 9 12.8669 9 14.0309C9 14.6017 9.09417 15.1583 9.2843 15.7053C9.46642 16.2291 9.81174 16.857 10.3598 17.5931L16.5031 23.7831ZM16.5031 23.7831L16.4989 23.7793M16.5031 23.7831L16.4989 23.7793M16.4989 23.7793C14.9434 22.3709 13.6668 21.1702 12.6661 20.1756M16.4989 23.7793L12.6661 20.1756M12.6661 20.1756C11.6714 19.1869 10.9072 18.3272 10.3602 17.5936L12.6661 20.1756Z" fill="white" stroke="#24252C" stroke-width="2"/>
</svg>
