<svg width="18" height="18" viewBox="0 0 18 18" fill="none" xmlns="http://www.w3.org/2000/svg">
<path d="M9.875 14.8058C9.38345 15.2675 8.61739 15.2666 8.12692 14.8038L8.08825 14.7673C6.87317 13.6336 5.87071 12.6622 5.08087 11.8532C4.29104 11.0442 3.66804 10.3245 3.21187 9.694C2.75629 9.06355 2.44042 8.48722 2.26425 7.965C2.08808 7.44279 2 6.90773 2 6.35983C2 5.22612 2.37071 4.27066 3.11212 3.49345C3.85354 2.71624 4.765 2.32764 5.8465 2.32764C6.44208 2.32764 7.01929 2.46155 7.57812 2.72939C8.13696 2.99661 8.61092 3.37237 9 3.85668C9.38908 3.37237 9.86304 2.99661 10.4219 2.72939C10.9807 2.46155 11.5579 2.32764 12.1535 2.32764C13.235 2.32764 14.1465 2.71624 14.8879 3.49345C15.6293 4.27066 16 5.22612 16 6.35983C16 6.90773 15.9148 7.43637 15.7445 7.94574C15.5747 8.45511 15.2618 9.02197 14.8056 9.64631C14.35 10.2706 13.7244 10.9937 12.9287 11.8156C12.1325 12.6374 11.1146 13.6342 9.875 14.8058Z" fill="#000"/>
<path d="M8.00219 15.9303L8.92872 14.9484C8.96975 14.9872 9.03371 14.9874 9.07508 14.9492C10.4823 13.6191 11.6293 12.4956 12.5201 11.5762C13.4045 10.6627 14.0736 9.88563 14.5445 9.2403L14.545 9.23964C15.0169 8.59365 15.2921 8.07137 15.4272 7.66575L15.4277 7.66443C15.5753 7.2231 15.65 6.7637 15.65 6.2801C15.65 5.31022 15.3457 4.55825 14.7522 3.93607C14.1616 3.31696 13.4738 3.02188 12.604 3.02188C12.1335 3.02188 11.6726 3.12598 11.2085 3.34842L11.2074 3.34894C10.7519 3.56675 10.3707 3.8687 10.0524 4.26486L9 5.57485L7.94757 4.26486C7.6293 3.8687 7.24811 3.56675 6.79261 3.34894L6.79153 3.34842C6.32741 3.12598 5.86646 3.02188 5.396 3.02188C4.52621 3.02188 3.83842 3.31696 3.24782 3.93607C2.65429 4.55825 2.35 5.31022 2.35 6.2801C2.35 6.75865 2.42646 7.22444 2.58117 7.68306C2.72543 8.11068 3.00781 8.64744 3.47872 9.29921L8.00219 15.9303ZM8.00219 15.9303L8.92872 14.9484L8.88453 14.9067L8.88454 14.9067M8.00219 15.9303L8.88454 14.9067M8.88454 14.9067L8.87897 14.9015M8.88454 14.9067L8.87897 14.9015M8.87897 14.9015C7.49925 13.6142 6.36993 12.5195 5.48697 11.6151M8.87897 14.9015L5.48697 11.6151M5.48697 11.6151C4.61193 10.7189 3.94835 9.94822 3.47889 9.29944L5.48697 11.6151Z" stroke="#24252C" stroke-width="2.7"/>
</svg>
